<svg xmlns="http://www.w3.org/2000/svg" xmlns:xlink="http://www.w3.org/1999/xlink" width="96" height="96" viewBox="0 0 96 96">
  <defs>
    <clipPath id="clip-path">
      <rect id="Rectángulo_457063" data-name="Rectángulo 457063" width="57.225" height="50.019" fill="#754114"/>
    </clipPath>
  </defs>
  <g id="Grupo_1214511" data-name="Grupo 1214511" transform="translate(-383.746 -8400.001)">
    <path id="Trazado_997400" data-name="Trazado 997400" d="M48,0A48,48,0,1,1,0,48,48,48,0,0,1,48,0Z" transform="translate(383.746 8400.001)" fill="#fee85b"/>
    <g id="Grupo_1099776" data-name="Grupo 1099776" transform="translate(401.746 8418)">
      <g id="Grupo_1099618" data-name="Grupo 1099618" transform="translate(-0.035 0)">
        <rect id="Rectángulo_401104" data-name="Rectángulo 401104" width="59.378" height="60.093" transform="translate(0)" fill="none"/>
      </g>
      <g id="Grupo_1215010" data-name="Grupo 1215010" transform="translate(2 0.254)">
        <g id="Grupo_1099618-2" data-name="Grupo 1099618" transform="translate(-2.035 -0.254)">
          <rect id="Rectángulo_401104-2" data-name="Rectángulo 401104" width="59.378" height="60.093" transform="translate(0)" fill="none"/>
        </g>
        <g id="Grupo_1215009" data-name="Grupo 1215009" transform="translate(-1.035 4.746)">
          <g id="Grupo_1215008" data-name="Grupo 1215008" clip-path="url(#clip-path)">
            <path id="Trazado_1007390" data-name="Trazado 1007390" d="M.013,29.125l4.9-8.555,2.1-.084-.005-5.749a.9.9,0,0,1,.758-.9.869.869,0,0,1,.893.9l0,5.77,11.275,0,.875-4.931a24.774,24.774,0,0,0,.051-3.593A2.9,2.9,0,0,1,23.42,9.2l3.461-.048,0-3.779a1.282,1.282,0,0,0-1.177-1.292l-15.727,0A1.37,1.37,0,0,0,8.668,5.4l-.007,5.438a.859.859,0,0,1-.74.88.833.833,0,0,1-.909-.889L7.023,5.4a2.976,2.976,0,0,1,3.112-3l15.751.04a2.987,2.987,0,0,1,2.7,3.082l.008,3.668a3.014,3.014,0,0,1,3.669,2.943,24.1,24.1,0,0,0,.052,3.426L33.2,20.5l1.623-.008.027-7.644a4.048,4.048,0,0,1,3.221-3.856l-.011-5.751A3.05,3.05,0,0,1,40.716.055a16.44,16.44,0,0,1,2.718,0,2.982,2.982,0,0,1,2.627,2.856l.045,1.438,3.456-.014a.921.921,0,0,1,.908.828.919.919,0,0,1-.737.87l-3.644.007,0,2.96a4.215,4.215,0,0,1,3.255,4.44c-.025.6-.281,1.049-.883,1.048-1.352,0-.315-1.9-1.49-3.157a2.706,2.706,0,0,0-2.028-.744L39.18,10.6a2.413,2.413,0,0,0-2.663,2.346l-.012,7.558H47.614l.027-3.092a.9.9,0,0,1,.825-.81.9.9,0,0,1,.868.93L49.32,20.47l2.959.082,4.85,8.468a1.339,1.339,0,0,1,.056.815,1,1,0,0,1-.634.457l-3.939.038,0,18.869a.832.832,0,0,1-.829.82H5.574a1.13,1.13,0,0,1-.8-.283,1.935,1.935,0,0,1-.18-.838V30.329L.785,30.3a1.072,1.072,0,0,1-.7-.357,1.82,1.82,0,0,1-.069-.816M44.4,8.9l0-6.07a1.4,1.4,0,0,0-1.313-1.146l-2.159.006A1.363,1.363,0,0,0,39.774,2.92l0,5.982ZM30.6,14.777V12.128c0-.5-.524-1.285-1.1-1.286l-5.731-.011a1.28,1.28,0,0,0-1.211,1.27l.018,2.667Zm.9,5.723-.767-4.035-8.343,0-.755,4.041ZM11.68,28.607,15.322,22.2,5.912,22.2,2.253,28.607ZM6.257,48.381l9.679.008.006-7.968a.97.97,0,0,1,.966-.655.927.927,0,0,1,.726.934l.009,7.688,33.3-.006V30.318l-10.109.028a.991.991,0,0,1-.863-.9.947.947,0,0,1,.893-.84l14.081,0L51.3,22.2l-33.044,0L21.9,28.61l14.96,0a.9.9,0,0,1,.991.844.918.918,0,0,1-.967.886l-15.886,0-3.337-5.677L17.623,36.9a.916.916,0,0,1-1,.743.971.971,0,0,1-.679-.906l-.027-12.087-2.961,5.1a1.2,1.2,0,0,1-1,.6l-5.7-.012Z" transform="translate(0 0)" fill="#754114"/>
            <path id="Trazado_1007391" data-name="Trazado 1007391" d="M239.121,83.267l-6.539.005a.919.919,0,0,1-.774-.81l0-3.972a.86.86,0,0,1,.773-.842h6.638c.26,0,.62.559.62.829v3.99c0,.268-.381.8-.712.8m-.983-3.969h-4.62v2.321h4.62Z" transform="translate(-193.741 -64.897)" fill="#754114"/>
            <path id="Trazado_1007392" data-name="Trazado 1007392" d="M143.564,232.425h-17.37a.9.9,0,0,1-.9-.726.826.826,0,0,1,.889-.923h17.4a.828.828,0,1,1-.014,1.649" transform="translate(-104.717 -192.882)" fill="#754114"/>
            <path id="Trazado_1007393" data-name="Trazado 1007393" d="M143.649,209.239l-17.433,0a1,1,0,0,1-.892-.747.841.841,0,0,1,.88-.94h17.4a.843.843,0,1,1,.047,1.684" transform="translate(-104.74 -173.474)" fill="#754114"/>
            <path id="Trazado_1007394" data-name="Trazado 1007394" d="M138.077,255.448l-11.911.011a.868.868,0,0,1-.877-.75.837.837,0,0,1,.88-.915l11.672,0a.978.978,0,0,1,.91.647c.1.289-.173,1.009-.674,1.01" transform="translate(-104.714 -212.118)" fill="#754114"/>
          </g>
        </g>
      </g>
    </g>
  </g>
</svg>
