<svg id="Grupo_1215034" data-name="Grupo 1215034" xmlns="http://www.w3.org/2000/svg" xmlns:xlink="http://www.w3.org/1999/xlink" width="311.917" height="389.823" viewBox="0 0 311.917 389.823">
  <defs>
    <clipPath id="clip-path">
      <rect id="Rectángulo_457079" data-name="Rectángulo 457079" width="311.917" height="389.823" fill="none"/>
    </clipPath>
    <filter id="Trazado_1007449" x="-9" y="-6" width="310.781" height="407.823" filterUnits="userSpaceOnUse">
      <feOffset dy="3" input="SourceAlpha"/>
      <feGaussianBlur stdDeviation="3" result="blur"/>
      <feFlood flood-opacity="0.161"/>
      <feComposite operator="in" in2="blur"/>
      <feComposite in="SourceGraphic"/>
    </filter>
  </defs>
  <g id="Grupo_1215033" data-name="Grupo 1215033" clip-path="url(#clip-path)">
    <g transform="matrix(1, 0, 0, 1, 0, 0)" filter="url(#Trazado_1007449)">
      <path id="Trazado_1007449-2" data-name="Trazado 1007449" d="M10.295,389.823A10.3,10.3,0,0,1,0,379.528V146.39A146.394,146.394,0,0,1,124.113,1.713c2.708-.432,5.6-.79,8.781-1.085,3.638-.336,7.27-.534,10.806-.59C144.6,0,145.487,0,146.39,0q1.8,0,3.61.056A146.355,146.355,0,0,1,292.781,146.39v74.994c-.282,23.983-.282,21.07,0,32.277V379.528a10.294,10.294,0,0,1-10.295,10.295Z" fill="#fff"/>
    </g>
    <path id="Trazado_1007450" data-name="Trazado 1007450" d="M279.152,142.279v154.4l-111.119,27.6L6.961,296.674v-154.4A136.1,136.1,0,0,1,122.33,7.778c2.693-.429,5.422-.755,8.185-1.012q5.018-.464,10.14-.55c.806-.033,1.6-.033,2.4-.033q1.647,0,3.294.051a136.064,136.064,0,0,1,132.8,136.045" transform="translate(4.132 3.67)" fill="#6e72ff"/>
    <path id="Trazado_1007451" data-name="Trazado 1007451" d="M279.152,182.25v42.569l-.72.515.72.806v39.633h-168.8l-42.091-18.03-49.5,18.03H6.961V226.156l1.063-.72L6.961,224.8V182.25Z" transform="translate(4.132 108.188)" fill="#352945"/>
    <rect id="Rectángulo_457078" data-name="Rectángulo 457078" width="272.191" height="1.286" transform="translate(11.093 333.025)" fill="#6e72ff"/>
    <path id="Trazado_1007452" data-name="Trazado 1007452" d="M123.428,194.695l28.328,13.726,77.393-2.628-29.5-15.479Z" transform="translate(73.27 112.975)" fill="#6e72ff"/>
    <path id="Trazado_1007453" data-name="Trazado 1007453" d="M175.048,173.632,172.68,175.6l-1.407,1.167-6.76,5.645-9.007,7.516-1.27,1.047-1.785,1.493-.822.685-.55.464-5.833,4.873-3.981,3.294-4.582,3.844L122.476,217.47l-4.7,3.912L105.165,231.9l.018.636.171,6.279,1.734,66.092H78.449l-.684-2.671-.658,2.671H15.549c-.875-8.974-2.521-26.716-2.95-37.095-.585-14.311,1.167-25.978,8.166-37.37,1.065-1.716,2.351-3.568,3.758-5.49.875-1.184,1.8-2.368,2.763-3.57,3.208-4.083,6.794-8.218,9.882-11.667.274-.309.55-.6.789-.892h.018c3.347-3.723,6-6.52,6.8-7.326,0,0,.018-.018.018,0,.137-.172.222-.258.222-.258s1.751-8.029-2.333-13.88c-3.431-4.907-10.774-7.034-9.763-13.3a12.132,12.132,0,0,1,1.579-4.083c.994-1.716,3.568-4.376,7.189-7.6,6.692-5.954,16.969-13.863,27.3-21.4.172-.137.36-.274.532-.394.172-.137.343-.258.515-.378C84.9,129.4,99.675,119.5,104,117.423c9.06-4.392,31.844,5.833,31.844,5.833l.636.841,12.508,16.386,3.19,4.049,4.531,5.764Z" transform="translate(7.417 69.055)" fill="#f8bdff"/>
    <path id="Trazado_1007454" data-name="Trazado 1007454" d="M119.944,153.387l48.406,40.741L151.485,214.28l-50.6-37.675Z" transform="translate(59.889 91.054)" fill="#ffa78f"/>
    <path id="Trazado_1007455" data-name="Trazado 1007455" d="M129.751,200.267l17.523-24.751s12.12,16.719,20.443,18.472,49.794,8.1,49.794,10.513-16.684,3.176-16.684,3.176a7.122,7.122,0,0,1-3.286,4.016c-2.293,1.146-35.812,2.811-41.726,1.716s-26.065-13.143-26.065-13.143" transform="translate(77.023 104.191)" fill="#b5e1e8"/>
    <path id="Trazado_1007456" data-name="Trazado 1007456" d="M155.083,203.467c-4.164,0-7.492-.188-8.951-.669a.429.429,0,0,1,.269-.814c5.045,1.659,37.206-.5,40.41-1.465,1.965-.588,3.477-1.589,3.853-2.55a1.136,1.136,0,0,0-.084-1.055c-.883-.912-13.3-1.707-24.537-1.979a.429.429,0,0,1,.021-.857c5.675.139,24.263.72,25.256,2.4a2,2,0,0,1,.145,1.8c-.483,1.235-2.131,2.378-4.406,3.06-2.2.661-20.349,2.126-31.974,2.126" transform="translate(86.573 115.209)" fill="#352945"/>
    <path id="Trazado_1007457" data-name="Trazado 1007457" d="M110.65,136.069l26.869,30.958-25.7,30.08L86.41,171.991Z" transform="translate(51.295 80.774)" fill="#f8bdff"/>
    <path id="Trazado_1007458" data-name="Trazado 1007458" d="M86.218,209.765c-36.94,0-57.916-22.985-58.142-23.237a.644.644,0,0,1,.961-.859c.241.271,24.462,26.8,66.722,22.3,2.4-1.982,32.553-26.966,35.429-31.278,2.98-4.47,7.975-20.483,8.024-20.644a.655.655,0,0,1,.8-.424.645.645,0,0,1,.424.806c-.206.666-5.1,16.352-8.183,20.975s-34.492,30.577-35.828,31.68a.64.64,0,0,1-.341.143,91.4,91.4,0,0,1-9.871.539" transform="translate(16.57 92.366)" fill="#352945"/>
    <path id="Trazado_1007459" data-name="Trazado 1007459" d="M65.859,201.737l-11.273,15.9-.257,37.165H53.041l.258-37.386a.571.571,0,0,1,.12-.362L64.812,201a.64.64,0,0,1,1.047.738" transform="translate(31.486 119.156)" fill="#352945"/>
    <path id="Trazado_1007460" data-name="Trazado 1007460" d="M114.213,166.673l-6.132,7.959,1.24,1.095,9.127-7.959Z" transform="translate(64.16 98.941)" fill="#f7ede5"/>
    <path id="Trazado_1007461" data-name="Trazado 1007461" d="M130.767,167.031l-3.208,8.614-4.084-.464-.185-1.144-.706,1.041L108,173.448l-10.226-6.28,5.112-12.4,23.541,10.363-.069,1.28.857-.937Z" transform="translate(58.04 91.871)" fill="#f7ede5"/>
    <path id="Trazado_1007462" data-name="Trazado 1007462" d="M117.973,161.609l-3.74,9.712-.892-.1,3.844-9.951Z" transform="translate(67.282 95.731)" fill="#352945"/>
    <path id="Trazado_1007463" data-name="Trazado 1007463" d="M122,167.386l-.333,37.473a8.579,8.579,0,0,1-11.3,8.059l-20.743-6.95a8.578,8.578,0,0,1-4.163-13.248l22.6-30.445Z" transform="translate(49.726 96.33)" fill="#e3735f"/>
    <path id="Trazado_1007464" data-name="Trazado 1007464" d="M62.594,131.533s-36.8,22.706-38.331,39.353,6.572,18.472,15.114,22.2,35.7,9.418,35.7,9.418L83.4,174.025l-9.418-2.848,11.39-10.951Z" transform="translate(14.292 78.081)" fill="#ffa78f"/>
    <path id="Trazado_1007465" data-name="Trazado 1007465" d="M109.653,174.315a.644.644,0,0,1-.2-.03L48.564,154.79a.644.644,0,0,1,.392-1.227l60.892,19.5a.643.643,0,0,1-.2,1.256" transform="translate(28.564 91.142)" fill="#352945"/>
    <path id="Trazado_1007466" data-name="Trazado 1007466" d="M74.113,164.616a.64.64,0,0,1-.5-.242l-25.629-32.2a.644.644,0,0,1,1.009-.8l25.241,31.715,28.854-21.1a.642.642,0,1,1,.757,1.037l-29.35,21.466a.635.635,0,0,1-.379.124" transform="translate(28.4 77.841)" fill="#352945"/>
    <path id="Trazado_1007467" data-name="Trazado 1007467" d="M66.228,156.686l-12.484,36.8s28.255,1.095,41.4.218,18.4-1.533,19.931-2.848a24.643,24.643,0,0,1,3.506-2.408s-3.068,4.379-1.1,5.037,8.543.438,10.077-5.037a5.846,5.846,0,0,0,2.846-5.7s2.629-2.628,2.848-4.6a13.116,13.116,0,0,0,0-3.286s11.61,5.037,15.552.876c0,0-24.312-14.019-25.847-13.143s-12.266,5.476-16.427,5.257-40.3-11.171-40.3-11.171" transform="translate(31.904 93.013)" fill="#b5e1e8"/>
    <path id="Trazado_1007468" data-name="Trazado 1007468" d="M110.33,171.235c-.464-2.782-6.19-6.486-6.433-6.642a.429.429,0,1,0-.464.722c1.57,1.009,5.718,4.064,6.051,6.062.373,2.236-2.1,5.269-2.456,5.7-1.546-2.387-6.15-5.6-6.733-6.008a.429.429,0,1,0-.488.706c1.731,1.194,6.335,4.679,6.84,6.445.4,1.393-1.1,3.466-2.153,4.652-.966-3.149-6.983-5.844-7.265-5.967a.429.429,0,0,0-.344.786c1.955.862,7.007,3.635,6.9,6.088-.083,1.858-3.916,4.067-6.994,4.574-1.46.244-2.464.033-2.692-.55-.876-2.253,1.892-3.933,2.01-4a.428.428,0,0,0,.15-.588.422.422,0,0,0-.586-.148c-1.219.719-3.284,2.7-2.371,5.05.3.784,1.141,1.194,2.4,1.194a7.832,7.832,0,0,0,1.232-.11c2.993-.494,7.361-2.738,7.681-5.2.588-.591,3.525-3.7,2.861-6.019-.014-.053-.046-.113-.067-.166a.422.422,0,0,0,.2-.089c.131-.15,3.194-3.691,2.728-6.489" transform="translate(55.25 97.666)" fill="#352945"/>
    <path id="Trazado_1007469" data-name="Trazado 1007469" d="M155.383,121.988c0,6.9-1.955,12.422-6.709,16.712l-.961.806s-1.474,1.218-3.758,3.036l3.552,10.107-9.917-5.165c-.994.755-1.955,1.527-2.865,2.265-.175.142-.751-.762-.915-.626s.062,1.326-.115,1.468c-5.267,4.375-9.111,7.978-12.559,7.377-1.544-.257-4.975-3.4-8.116-7.755L105.66,155.5s-.653,12.268-6.126,10.947-9.643-31.313-9.643-31.313l18.668-14.1a23.421,23.421,0,0,1,46.824.961" transform="translate(53.362 58.502)" fill="#ffa78f"/>
    <path id="Trazado_1007470" data-name="Trazado 1007470" d="M159.465,125.273c-2.336-4.819-6.571-13.288-13-19.275a25.953,25.953,0,0,0-6.2-4.443,15.334,15.334,0,1,0-24.908,3.022c-8.577,5.635-12.2,15.606-14.163,21.135-2.336,6.571-8.47,17.96-8.47,17.96s14.894.73,18.983-1.606a43.783,43.783,0,0,1,7.885-3.5,47.961,47.961,0,0,0,14.6-2.336c7.739-2.628,14.749-8.907,14.749-8.907,0,2.628-8.47,9.492-8.47,9.492l12.413,14.164s7.3-6.134,10.222-10.077-1.315-10.8-3.651-15.624" transform="translate(55.048 46.886)" fill="#352945"/>
    <path id="Trazado_1007471" data-name="Trazado 1007471" d="M117.184,111.389c-1.56-1.485-4.088-1.4-6.08-.582a10.355,10.355,0,0,0-5.82,13.036,6.712,6.712,0,0,0,3.654,4.166,5.774,5.774,0,0,0,4.507-.293,8.739,8.739,0,0,0,3.388-3.095,10.349,10.349,0,0,0,1.74-6.394c-.075-2.308.486-5.055-1.39-6.838" transform="translate(62.151 65.432)" fill="#ffa78f"/>
    <path id="Trazado_1007472" data-name="Trazado 1007472" d="M122.925,124.4c-1.09,1.09-2.529,1.42-3.214.736s-.355-2.124.736-3.214,2.529-1.42,3.214-.736.354,2.124-.736,3.214" transform="translate(70.852 71.726)" fill="#352945"/>
    <path id="Trazado_1007473" data-name="Trazado 1007473" d="M118.749,133.545c-.36.292-.687.566-1.029.841a7.816,7.816,0,0,1-.618-1.853,13.148,13.148,0,0,1,.155-6.212.648.648,0,0,1,.806-.446.656.656,0,0,1,.446.79,11.875,11.875,0,0,0-.155,5.594,6.766,6.766,0,0,0,.4,1.286" transform="translate(69.337 74.707)" fill="#352945"/>
    <path id="Trazado_1007474" data-name="Trazado 1007474" d="M125.6,120.956a.64.64,0,0,1-.535-.287,3.777,3.777,0,0,0-2.52-1.606.643.643,0,0,1-.537-.735.635.635,0,0,1,.735-.535,5.066,5.066,0,0,1,3.391,2.163.642.642,0,0,1-.178.892.633.633,0,0,1-.355.108" transform="translate(72.42 69.918)" fill="#352945"/>
    <path id="Trazado_1007475" data-name="Trazado 1007475" d="M75.645,48.008H62.617l5.429-7.522a.793.793,0,1,0-1.286-.927l-4.642,6.43V27.325a.794.794,0,1,0-1.587,0V46.917l-5.916-6.483A.793.793,0,1,0,53.444,41.5l5.936,6.505H46.735a.794.794,0,0,0,0,1.589H59.514l-5.723,7.928a.794.794,0,1,0,1.288.929L60.531,50.9V72.985a.794.794,0,1,0,1.587,0V51.012L67.493,56.9a.794.794,0,1,0,1.173-1.069L62.975,49.6H75.645a.794.794,0,0,0,0-1.589" transform="translate(27.272 15.749)" fill="#fff"/>
    <path id="Trazado_1007476" data-name="Trazado 1007476" d="M179.438,74.681H166.41l5.429-7.523a.793.793,0,1,0-1.286-.927l-4.642,6.43V54a.794.794,0,1,0-1.587,0V73.588L158.408,67.1a.793.793,0,1,0-1.171,1.069l5.936,6.507H150.528a.794.794,0,0,0,0,1.587h12.779L157.584,84.2a.794.794,0,1,0,1.288.929l5.452-7.554V99.656a.794.794,0,1,0,1.587,0V77.683l5.375,5.892a.794.794,0,1,0,1.173-1.069l-5.691-6.237h12.669a.794.794,0,1,0,0-1.587" transform="translate(88.886 31.582)" fill="#fff"/>
    <path id="Trazado_1007477" data-name="Trazado 1007477" d="M43.181,105.737H30.153l5.429-7.523a.793.793,0,1,0-1.286-.927l-4.642,6.43V85.052a.794.794,0,0,0-1.587,0v19.592l-5.916-6.483A.793.793,0,1,0,20.98,99.23l5.936,6.507H14.271a.794.794,0,1,0,0,1.587H27.05l-5.723,7.93a.793.793,0,1,0,1.288.928l5.452-7.554v22.084a.794.794,0,1,0,1.587,0V108.739l5.375,5.892a.794.794,0,1,0,1.173-1.069l-5.691-6.237H43.181a.794.794,0,0,0,0-1.587" transform="translate(8 50.018)" fill="#fff"/>
    <path id="Trazado_1007478" data-name="Trazado 1007478" d="M90.257,63.084a7.889,7.889,0,1,1,2.8-.52,7.838,7.838,0,0,1-2.8.52m0-14.462a6.586,6.586,0,1,0,6.161,4.242,6.54,6.54,0,0,0-6.161-4.242" transform="translate(48.906 28.099)" fill="#fff"/>
    <path id="Trazado_1007479" data-name="Trazado 1007479" d="M144.422,49.062a7.874,7.874,0,1,1,2.794-.516,7.885,7.885,0,0,1-2.794.516m0-14.461a6.6,6.6,0,1,0,2.69.58,6.555,6.555,0,0,0-2.69-.58" transform="translate(81.052 19.776)" fill="#fff"/>
    <path id="Trazado_1007480" data-name="Trazado 1007480" d="M38.59,79.945a11.545,11.545,0,1,1,4.1-.755,11.567,11.567,0,0,1-4.1.755m-.01-21.812A10.263,10.263,0,1,0,42.23,77.986h0A10.265,10.265,0,0,0,38.58,58.133" transform="translate(16.041 33.744)" fill="#fff"/>
    <path id="Trazado_1007481" data-name="Trazado 1007481" d="M150.632,122.744a12.06,12.06,0,1,1,4.288-.794,11.992,11.992,0,0,1-4.288.794m.01-22.792a10.772,10.772,0,1,0,4.392.947,10.728,10.728,0,0,0-4.392-.947" transform="translate(82.274 58.569)" fill="#fff"/>
  </g>
</svg>
