<svg xmlns="http://www.w3.org/2000/svg" xmlns:xlink="http://www.w3.org/1999/xlink" width="150" height="150" viewBox="0 0 150 150">
  <defs>
    <clipPath id="clip-path">
      <rect id="Rectángulo_457008" data-name="Rectángulo 457008" width="90.666" height="75.252" fill="#fff"/>
    </clipPath>
  </defs>
  <g id="Grupo_1214468" data-name="Grupo 1214468" transform="translate(-350.453 -11505.227)">
    <g id="Grupo_1179047" data-name="Grupo 1179047">
      <g id="Grupo_1179019" data-name="Grupo 1179019" transform="translate(350.453 11505.227)">
        <path id="Unión_84" data-name="Unión 84" d="M90.231,146.644l2.827-6.5L23.31,136.971C9.782,136.356-.642,125.511.031,112.748L4.808,22.021C5.481,9.26,16.994-.588,30.522.027L126.692,4.4c13.528.616,23.95,11.46,23.278,24.224l-4.778,90.726c-.673,12.762-12.184,22.61-25.713,21.994l-10.558-.48L94.5,149.549a3.1,3.1,0,0,1-1.61.451C91.069,150,89.469,148.4,90.231,146.644Z" transform="translate(0 0)" fill="#080f71"/>
      </g>
      <g id="Grupo_1214928" data-name="Grupo 1214928" transform="translate(380.453 11543.227)">
        <g id="Grupo_1214927" data-name="Grupo 1214927" clip-path="url(#clip-path)">
          <path id="Trazado_1007179" data-name="Trazado 1007179" d="M13.295,59.161H6.664a2.185,2.185,0,0,1-2.236-2.244L4.374,50.6a24.054,24.054,0,0,1-2.616-5.427,47.541,47.541,0,0,1-.5-23.674A15.625,15.625,0,0,1,4.418,15l-.01-6.1A2.148,2.148,0,0,1,6.45,6.565l6.82-.083C22.291,1.349,34.437-.024,44.747,0,54.872.024,66.626,1.339,75.419,6.488l6.6.054a2.14,2.14,0,0,1,2.223,2.111v6.163a16.165,16.165,0,0,1,4.237,8.592A45.4,45.4,0,0,1,87.3,44.515,19.728,19.728,0,1,1,53.261,64.289a105.6,105.6,0,0,1-28.653-1.414,45.132,45.132,0,0,1-11.313-3.715m1.167-4.173,5.447,2.15C29.873,60.2,41.366,60.656,51.7,60a19.772,19.772,0,0,1,32.07-19.516c1.534-6.173,1.846-18.5-2.471-22.253-.6-.517-1.435-1.256-1.438-2.021l-.019-5.3-5.66,0a32.786,32.786,0,0,0-9.99-4.29C51.859,3.445,35.34,3.592,23.082,7.076a35.844,35.844,0,0,0-8.612,3.815l-5.646.034.007,5.016c0,1.687-2.33,1.989-3.472,7.263a44.307,44.307,0,0,0,0,18.373C6.529,47.292,8.829,48.2,8.83,49.91l0,4.868c1.782.194,3.913-.468,5.629.209M73.295,70.675a15.353,15.353,0,0,0,12.818-12.91l-2.218-.08A2.159,2.159,0,0,1,81.9,55.705a2.064,2.064,0,0,1,1.708-2.259l2.491-.091a15.307,15.307,0,0,0-12.955-13l-.1,2.51c-.046,1.142-1.459,1.806-2.38,1.685a2.249,2.249,0,0,1-1.933-2.191l-.077-2.015A15.346,15.346,0,0,0,55.738,53.362l2.69.111c.98.04,1.611,1.35,1.551,2.218-.046.659-.813,1.874-1.6,1.917l-2.628.143A15.415,15.415,0,0,0,68.591,70.672l.127-1.635c.116-1.487.853-2.491,2.171-2.522a2.166,2.166,0,0,1,2.256,2.229Z" transform="translate(0 0)" fill="#fff"/>
          <path id="Trazado_1007180" data-name="Trazado 1007180" d="M62.878,96.689l-11.686-.01a2.584,2.584,0,0,1-1.854-1.253,2.217,2.217,0,0,1,.231-2.252l8.508-9.6-6.884-.057a2.352,2.352,0,0,1-2.046-1.823c-.169-.788.458-2.442,1.547-2.444l12.878-.029c.6,0,1.377.876,1.535,1.381a2.839,2.839,0,0,1-.553,2.305l-8.318,9.383,7.062.089a2.029,2.029,0,0,1,1.886,2.261,2.172,2.172,0,0,1-2.307,2.05" transform="translate(-35.95 -57.98)" fill="#fff"/>
          <path id="Trazado_1007181" data-name="Trazado 1007181" d="M125.864,164.365l-9.023.04a2.469,2.469,0,0,1-1.952-1.184,2.536,2.536,0,0,1,.377-2.577l5.494-6.4-3.866-.07a2.2,2.2,0,1,1,.038-4.407l8.481-.013a2.425,2.425,0,0,1,2.144,1.132,2.3,2.3,0,0,1-.375,2.609l-5.541,6.49,4.621.15c.939.03,1.616,1.407,1.554,2.2-.059.763-.869,2.023-1.952,2.027" transform="translate(-83.924 -109.601)" fill="#fff"/>
          <path id="Trazado_1007182" data-name="Trazado 1007182" d="M136.645,49.967l-9.05.022a2.448,2.448,0,0,1-1.786-1.127,2.664,2.664,0,0,1,.045-2.271l5.828-6.853-3.913-.056a2.166,2.166,0,0,1-2.221-2.084,2.109,2.109,0,0,1,1.977-2.245l9.135-.017a2.508,2.508,0,0,1,1.837,1.238,2.289,2.289,0,0,1-.225,2.228l-5.694,6.674,4.059.085a2.208,2.208,0,0,1,.007,4.406" transform="translate(-91.886 -25.862)" fill="#fff"/>
          <path id="Trazado_1007183" data-name="Trazado 1007183" d="M241.6,187.085l-5.828-2.932a2.144,2.144,0,0,1-.972-2.756c.272-.754,1.537-1.769,2.6-1.261l4.826,2.317,4.655-4.628a2.2,2.2,0,0,1,3.141-.047,2.139,2.139,0,0,1-.034,3.161l-5.75,5.776a2.348,2.348,0,0,1-2.633.37" transform="translate(-171.733 -129.648)" fill="#fff"/>
        </g>
      </g>
    </g>
  </g>
</svg>
