<svg xmlns="http://www.w3.org/2000/svg" xmlns:xlink="http://www.w3.org/1999/xlink" width="150" height="150" viewBox="0 0 150 150">
  <defs>
    <clipPath id="clip-path">
      <rect id="Rectángulo_457116" data-name="Rectángulo 457116" width="87.912" height="87.953" fill="#fff"/>
    </clipPath>
  </defs>
  <g id="Grupo_1214889" data-name="Grupo 1214889" transform="translate(-350.25 -11505.227)">
    <g id="Grupo_1179047" data-name="Grupo 1179047">
      <g id="Grupo_1179019" data-name="Grupo 1179019" transform="translate(350.25 11505.227)">
        <path id="Unión_84" data-name="Unión 84" d="M90.231,146.644l2.827-6.5L23.31,136.971C9.782,136.356-.642,125.511.031,112.748L4.808,22.021C5.481,9.26,16.994-.588,30.522.027L126.692,4.4c13.528.616,23.95,11.46,23.278,24.224l-4.778,90.726c-.673,12.762-12.184,22.61-25.713,21.994l-10.558-.48L94.5,149.549a3.1,3.1,0,0,1-1.61.451C91.069,150,89.469,148.4,90.231,146.644Z" transform="translate(0 0)" fill="#080f71"/>
      </g>
      <g id="Grupo_1179038" data-name="Grupo 1179038" transform="translate(378.742 11522.579)">
        <path id="Trazado_873216" data-name="Trazado 873216" d="M0,0H87.912V87.913H0Z" fill="none"/>
        <g id="Grupo_1215078" data-name="Grupo 1215078" transform="translate(3.508 6.647)">
          <g id="Grupo_1215077" data-name="Grupo 1215077" clip-path="url(#clip-path)">
            <path id="Trazado_1007648" data-name="Trazado 1007648" d="M5.229,84.5l62.262,0a1.718,1.718,0,0,0,1.888-1.846L69.39,70.1a1.739,1.739,0,0,1,1.8-1.644,1.69,1.69,0,0,1,1.647,1.847L72.8,82.9a5.127,5.127,0,0,1-5.3,5.048H5.329A5.221,5.221,0,0,1,0,82.611V5.322A5.187,5.187,0,0,1,5.324,0L67.758.008a5.06,5.06,0,0,1,5.049,5.017l.031,18.649a1.824,1.824,0,0,1-1.431,1.832c-.645.159-2.005-.464-2.006-1.44L69.374,5.283a1.7,1.7,0,0,0-2.137-1.795l-61.9,0A1.65,1.65,0,0,0,3.45,5.334V82.6a1.68,1.68,0,0,0,1.779,1.9" fill="#fff"/>
            <path id="Trazado_1007649" data-name="Trazado 1007649" d="M205.377,142.08a2.153,2.153,0,0,1-1.832-.11,2.068,2.068,0,0,1-.712-1.49l1.583-14.12,21.748-37.67a7.218,7.218,0,1,1,12.409,7.372l-21.656,37.505ZM234.05,97.048l1.468-2.573a3.818,3.818,0,0,0-.906-5.315,3.766,3.766,0,0,0-5.236.914l-1.912,3.208Zm-8.312-.87-17.4,30.145,6.656,3.842,17.4-30.145Zm-13.3,36.425-4.944-2.864-.783,7.088Z" transform="translate(-151.713 -63.609)" fill="#fff"/>
            <path id="Trazado_1007650" data-name="Trazado 1007650" d="M113.435,52.606A15.789,15.789,0,1,1,97.646,36.817a15.789,15.789,0,0,1,15.789,15.789m-9.624-1.28a6.8,6.8,0,0,1-1.285,4.392,12.075,12.075,0,0,1,5.057,4.213,12.353,12.353,0,1,0-19.881,0,12.3,12.3,0,0,1,5.05-4.22A7.021,7.021,0,0,1,91.478,51.2a6.182,6.182,0,1,1,12.333.122m-3.356.035c-.011-2.081-1.211-3.406-3.065-3.27-1.737.127-2.561,1.588-2.544,3.395a2.927,2.927,0,0,0,2.8,3.184c1.711-.005,2.821-1.445,2.811-3.309m4.627,11.1a8.528,8.528,0,0,0-14.869,0,12.274,12.274,0,0,0,14.869,0" transform="translate(-61.227 -27.539)" fill="#fff"/>
            <path id="Trazado_1007651" data-name="Trazado 1007651" d="M103.8,263.777l-24.15,0a1.727,1.727,0,1,1-.164-3.45l24.469,0a1.725,1.725,0,0,1-.155,3.446" transform="translate(-58.21 -194.722)" fill="#fff"/>
            <path id="Trazado_1007652" data-name="Trazado 1007652" d="M103.9,187.518l-24.224.011a1.978,1.978,0,0,1-1.8-1.387c-.173-.767.286-2.077,1.33-2.078l24.822-.014a1.738,1.738,0,0,1-.127,3.469" transform="translate(-58.222 -137.666)" fill="#fff"/>
            <path id="Trazado_1007653" data-name="Trazado 1007653" d="M103.857,225.615l-24.444,0a1.871,1.871,0,0,1-1.636-1.637c-.047-.582.55-1.826,1.431-1.826l24.768-.013a1.807,1.807,0,0,1,1.575,1.6,1.783,1.783,0,0,1-1.694,1.881" transform="translate(-58.175 -166.157)" fill="#fff"/>
            <path id="Trazado_1007654" data-name="Trazado 1007654" d="M148.444,302.167l-8.833-.012a1.684,1.684,0,0,1-1.8-1.424c-.092-.691.358-1.9,1.286-1.9l10.111-.006c.872,0,1.311,1.278,1.219,1.877a1.755,1.755,0,0,1-1.988,1.467" transform="translate(-103.075 -223.516)" fill="#fff"/>
            <path id="Trazado_1007655" data-name="Trazado 1007655" d="M52.07,185.763a1.7,1.7,0,1,1-1.7-1.7,1.7,1.7,0,0,1,1.7,1.7" transform="translate(-36.408 -137.679)" fill="#fff"/>
            <path id="Trazado_1007656" data-name="Trazado 1007656" d="M52.084,262.154a1.693,1.693,0,1,1-1.693-1.693,1.693,1.693,0,0,1,1.693,1.693" transform="translate(-36.425 -194.822)" fill="#fff"/>
            <path id="Trazado_1007657" data-name="Trazado 1007657" d="M52.062,223.972a1.69,1.69,0,1,1-1.69-1.69,1.69,1.69,0,0,1,1.69,1.69" transform="translate(-36.414 -166.264)" fill="#fff"/>
          </g>
        </g>
      </g>
    </g>
  </g>
</svg>
