<svg xmlns="http://www.w3.org/2000/svg" xmlns:xlink="http://www.w3.org/1999/xlink" width="150" height="150" viewBox="0 0 150 150">
  <defs>
    <clipPath id="clip-path">
      <rect id="Rectángulo_457003" data-name="Rectángulo 457003" width="88.4" height="88.333" fill="#fff"/>
    </clipPath>
  </defs>
  <g id="Grupo_1214465" data-name="Grupo 1214465" transform="translate(-350.453 -11505.227)">
    <g id="Grupo_1179047" data-name="Grupo 1179047">
      <g id="Grupo_1179019" data-name="Grupo 1179019" transform="translate(350.453 11505.227)">
        <path id="Unión_84" data-name="Unión 84" d="M90.231,146.644l2.827-6.5L23.31,136.971C9.782,136.356-.642,125.511.031,112.748L4.808,22.021C5.481,9.26,16.994-.588,30.522.027L126.692,4.4c13.528.616,23.95,11.46,23.278,24.224l-4.778,90.726c-.673,12.762-12.184,22.61-25.713,21.994l-10.558-.48L94.5,149.549a3.1,3.1,0,0,1-1.61.451C91.069,150,89.469,148.4,90.231,146.644Z" transform="translate(0 0)" fill="#080f71"/>
      </g>
      <g id="Grupo_1214922" data-name="Grupo 1214922" transform="translate(380.117 11528.893)">
        <g id="Grupo_1214921" data-name="Grupo 1214921" clip-path="url(#clip-path)">
          <path id="Trazado_1007157" data-name="Trazado 1007157" d="M175.746,135.758c-.883,0-1.426-.5-1.425-1.211l.033-12.808a3.071,3.071,0,0,1,3.8-2.82c.026-2.842-.036-5.5.152-8.242A19.3,19.3,0,0,1,188.248,94.8c1.338-.75,3.056-1.264,4.219-2.228,2.62-2.171,4.818-4.634,7.257-6.982a6.129,6.129,0,0,1,5.284-1.642l.059-13.768c.015-3.539,3.345-5.372,6.534-5.3,2.412.052,4.247,1.314,4.246,3.861l-.009,23.49a23.436,23.436,0,0,1-6.223,10.483l-6.5,5.332a12.062,12.062,0,0,0-4.313,10.873,3.082,3.082,0,0,1,3.748,3.027l.012,12.66a1.276,1.276,0,0,1-1.146,1.154ZM193.507,94.49c-2.015,1.855-11.417,3.293-13.027,15.984l-.1,8.406,16.16,0A14.7,14.7,0,0,1,202.133,106l5.672-4.554a21.325,21.325,0,0,0,5.832-9.586l-.024-23.681c0-1.013-1.3-.951-2-1.014-1.842-.165-4.3.7-4.312,2.9l-.066,14.732,1.656,1.442a3,3,0,0,1,.657,4.065l-10.091,10.1a1.09,1.09,0,0,1-1.384-1.653l9.89-9.9c-1.047-2.284-4.093-3.895-6.027-2.114Zm6.873,26.575H176.515v12.462h23.864Z" transform="translate(-127.447 -47.43)" fill="#fff"/>
          <path id="Trazado_1007158" data-name="Trazado 1007158" d="M41.507,134.458a1.168,1.168,0,0,1-1.164,1.3H14.533a1.275,1.275,0,0,1-1.276-1.208L13.3,121.74a3.012,3.012,0,0,1,3.734-2.794,12.4,12.4,0,0,0-4.824-11.355l-5.654-4.577C3.191,100.293,1.211,96.256,0,92.111L.017,68.463c0-2.533,2.087-3.519,4.278-3.589,3.651-.116,6.569,2.241,6.566,6l-.01,13.078a6.152,6.152,0,0,1,5.332,1.671l7.04,6.932,4.762,2.509a18.37,18.37,0,0,1,9.6,16.138l.136,7.715a3.033,3.033,0,0,1,3.751,2.739ZM14.048,86.822c-2.106-1.77-5.247-.252-6.147,1.984l9.931,9.961c.358.359.056,1.413-.335,1.6a1.655,1.655,0,0,1-1.506-.3l-9.4-9.426a2.689,2.689,0,0,1-.308-3.552c.73-.828,1.469-1.529,2.329-2.347l-.094-14.87C8.5,67.777,6,67.039,4.346,67.153c-.745.051-2.137.047-2.138,1.061L2.185,91.776a21.369,21.369,0,0,0,8.778,11.95c5.459,4.132,8.631,7.717,8.385,15.148l16.165,0c-.007-2.8.025-5.271-.133-7.823A17.312,17.312,0,0,0,24.564,95.769a12.173,12.173,0,0,1-3.735-2.436c-2.265-2.167-4.309-4.434-6.781-6.511M39.3,121.062h-23.8v12.462H39.3Z" transform="translate(0 -47.427)" fill="#fff"/>
          <path id="Trazado_1007159" data-name="Trazado 1007159" d="M102.943,46.9c-1.485,1.743-3.513,2.949-5.828,2.54A25.567,25.567,0,0,1,77.083,32.155l-2.333-7.413a3.4,3.4,0,0,1,1.042-3.108,3.859,3.859,0,0,1,3.567-.861,26.4,26.4,0,0,0,15.661-3.005,30.848,30.848,0,0,1-.975-8.049L94.1,2.956a3.668,3.668,0,0,1,1.87-2.6,3.935,3.935,0,0,1,3.8.295,26.3,26.3,0,0,0,21.82-.01c1.356-.63,2.5-.965,3.95-.182a3.715,3.715,0,0,1,1.831,3.089l-.043,7.766A25.935,25.935,0,0,1,113.875,33.5a7.058,7.058,0,0,1-4.828.724,26.742,26.742,0,0,1-6.1,12.677m22.2-36.2.031-7.164a1.7,1.7,0,0,0-.93-1.3,2.981,2.981,0,0,0-1.564.354A28.722,28.722,0,0,1,98.65,2.55a2.148,2.148,0,0,0-1.765-.192,2.077,2.077,0,0,0-.659,1.394l.05,7.324a24.1,24.1,0,0,0,11.918,20.3,4.38,4.38,0,0,0,4.942.023,24.21,24.21,0,0,0,12.01-20.7M106.945,33.2a39.214,39.214,0,0,1-5.328-4.165c-2.171.51-5.2.777-6.851-.791-.7-2.022.663-4.227,2.261-5.48l-1.292-2.882a28.292,28.292,0,0,1-16.942,3.01,2.528,2.528,0,0,0-1.456.225,1.671,1.671,0,0,0-.386,1.329l1.987,6.357A24.066,24.066,0,0,0,96.527,47.133a4.153,4.153,0,0,0,4.43-1.321,24.04,24.04,0,0,0,5.988-12.61m-7-6.023L98.1,24.567a10.657,10.657,0,0,0-1.392,2.426,20.358,20.358,0,0,0,3.234.186" transform="translate(-54.581 0)" fill="#fff"/>
          <path id="Trazado_1007160" data-name="Trazado 1007160" d="M239.38,286.572a3.867,3.867,0,1,1-3.867-3.867,3.867,3.867,0,0,1,3.867,3.867m-2.211,0a1.662,1.662,0,1,0-1.662,1.662,1.662,1.662,0,0,0,1.662-1.662" transform="translate(-169.358 -206.687)" fill="#fff"/>
          <path id="Trazado_1007161" data-name="Trazado 1007161" d="M76.069,286.555A3.865,3.865,0,1,1,72.2,282.69a3.866,3.866,0,0,1,3.865,3.865m-2.189-.006a1.659,1.659,0,1,0-1.659,1.659,1.659,1.659,0,0,0,1.659-1.659" transform="translate(-49.962 -206.676)" fill="#fff"/>
          <path id="Trazado_1007162" data-name="Trazado 1007162" d="M188.871,76.658a7.711,7.711,0,0,1-10.723-.083l-3.542-3.463a1.951,1.951,0,0,1-.064-1.876,1.9,1.9,0,0,1,1.654-.564,33.659,33.659,0,0,0,14.681.015,2.037,2.037,0,0,1,1.569.392,1.834,1.834,0,0,1,.207,1.879Zm.287-3.363a38.518,38.518,0,0,1-11.184-.027l2.045,1.974c2.465,2.38,6.688,1.311,9.139-1.947" transform="translate(-127.457 -51.648)" fill="#fff"/>
          <path id="Trazado_1007163" data-name="Trazado 1007163" d="M167.453,35.482c-3.387-.023-5.044-3.832-4.321-7.063a8.042,8.042,0,0,1,8.391.7c1.147.873,2.323,2.353,2.1,3.8a8.3,8.3,0,0,1-6.165,2.564m3.826-3.477c-1.566-2.217-3.87-2.425-6.064-2.048-.058,1.324.468,2.949,1.927,3.264a5.377,5.377,0,0,0,4.137-1.216" transform="translate(-119.145 -20.152)" fill="#fff"/>
          <path id="Trazado_1007164" data-name="Trazado 1007164" d="M225.048,28.508c.58,3.2-1.132,6.7-3.81,6.935a8.01,8.01,0,0,1-6.866-2.732,5.443,5.443,0,0,1,2-3.448,7.955,7.955,0,0,1,8.681-.755m-4.068,4.714c1.611-.348,2.071-2.192,1.805-3.322-2.433-.347-4.642.086-5.936,2.207a6.066,6.066,0,0,0,4.13,1.115" transform="translate(-156.729 -20.152)" fill="#fff"/>
          <path id="Trazado_1007165" data-name="Trazado 1007165" d="M139.845,125.945a31.251,31.251,0,0,0-12.7,4.005,1.959,1.959,0,0,1-1.643.095,1.681,1.681,0,0,1-.675-1.8,29.691,29.691,0,0,1,2.854-5.054,7.171,7.171,0,0,1,8.156-2.274c2.436.943,5.7,2.33,5.374,3.817a1.709,1.709,0,0,1-1.362,1.21m-2.728-1.9a5.519,5.519,0,0,0-9,2.785,49.133,49.133,0,0,1,9-2.785" transform="translate(-91.202 -88.069)" fill="#fff"/>
          <path id="Trazado_1007166" data-name="Trazado 1007166" d="M103.366,104.141a4.356,4.356,0,0,1-5.043-.782,8.131,8.131,0,0,1-2.059-4.206,7.839,7.839,0,0,1,8.22-1.934,4.532,4.532,0,0,1,3.053,2.876,8.13,8.13,0,0,1-4.17,4.045m-1.934-1.772a5.908,5.908,0,0,0,3.612-2.258,5.268,5.268,0,0,0-6.231-.219c.3,1.141,1.149,2.6,2.619,2.477" transform="translate(-70.379 -70.762)" fill="#fff"/>
        </g>
      </g>
    </g>
  </g>
</svg>
